<svg width="32" height="32" viewBox="0 0 32 32" fill="none" xmlns="http://www.w3.org/2000/svg">
<g clip-path="url(#clip0_10175_3748)">
<path d="M31.9284 1.3721C32.0011 1.19037 32.0189 0.991292 31.9796 0.799539C31.9403 0.607787 31.8455 0.431795 31.7071 0.293382C31.5687 0.154969 31.3927 0.0602219 31.2009 0.020887C31.0092 -0.0184479 30.8101 -0.000640906 30.6284 0.0721004L1.53437 11.7101C1.27815 11.8127 1.05519 11.9839 0.890035 12.205C0.724877 12.4261 0.623923 12.6885 0.598284 12.9633C0.572645 13.2381 0.623315 13.5147 0.744718 13.7625C0.86612 14.0104 1.05355 14.2199 1.28637 14.3681L11.2764 20.7241L14.3384 25.5361C14.483 25.7544 14.7075 25.9073 14.9636 25.9619C15.2198 26.0165 15.4871 25.9685 15.7082 25.8281C15.9293 25.6877 16.0864 25.4661 16.1459 25.2111C16.2054 24.956 16.1625 24.6878 16.0264 24.4641L13.2744 20.1401L28.2624 5.1521L24.4724 14.6281C24.4203 14.7506 24.3932 14.8822 24.3926 15.0153C24.3921 15.1483 24.4181 15.2802 24.4692 15.4031C24.5202 15.5259 24.5953 15.6374 24.69 15.7309C24.7846 15.8244 24.897 15.8981 25.0206 15.9476C25.1441 15.9971 25.2762 16.0215 25.4093 16.0193C25.5423 16.017 25.6736 15.9883 25.7954 15.9347C25.9172 15.8811 26.0271 15.8037 26.1186 15.7071C26.2101 15.6105 26.2814 15.4966 26.3284 15.3721L31.9284 1.3721ZM26.8484 3.7381L11.8604 18.7261L3.18237 13.2041L26.8484 3.7381Z" fill="white"/>
<path d="M32 25C32 26.8565 31.2625 28.637 29.9497 29.9497C28.637 31.2625 26.8565 32 25 32C23.1435 32 21.363 31.2625 20.0503 29.9497C18.7375 28.637 18 26.8565 18 25C18 23.1435 18.7375 21.363 20.0503 20.0503C21.363 18.7375 23.1435 18 25 18C26.8565 18 28.637 18.7375 29.9497 20.0503C31.2625 21.363 32 23.1435 32 25ZM28.014 21.642C27.9013 21.5745 27.7765 21.5298 27.6465 21.5106C27.5166 21.4913 27.3841 21.4978 27.2567 21.5298C27.1293 21.5617 27.0095 21.6185 26.904 21.6967C26.7985 21.775 26.7095 21.8733 26.642 21.986L24.302 25.886L23.208 24.792C23.0202 24.6042 22.7656 24.4987 22.5 24.4987C22.2344 24.4987 21.9798 24.6042 21.792 24.792C21.6042 24.9798 21.4987 25.2344 21.4987 25.5C21.4987 25.7656 21.6042 26.0202 21.792 26.208L23.34 27.754C23.5011 27.9154 23.6969 28.038 23.9126 28.1124C24.1282 28.1868 24.3579 28.211 24.5843 28.1832C24.8107 28.1554 25.0278 28.0764 25.219 27.9521C25.4103 27.8279 25.5707 27.6616 25.688 27.466L28.358 23.014C28.4255 22.9013 28.4702 22.7765 28.4894 22.6465C28.5087 22.5166 28.5022 22.3841 28.4702 22.2567C28.4383 22.1293 28.3815 22.0095 28.3033 21.904C28.225 21.7985 28.1267 21.7095 28.014 21.642Z" fill="white"/>
</g>
<defs>
<clipPath id="clip0_10175_3748">
<rect width="32" height="32" fill="white"/>
</clipPath>
</defs>
</svg>
